<svg width="82" height="85" viewBox="0 0 82 85" fill="none" xmlns="http://www.w3.org/2000/svg">
<path d="M41.5291 5.07422C61.4175 5.07422 77.561 21.3973 77.5613 41.5586C77.5613 61.7201 61.4177 78.0439 41.5291 78.0439C21.6404 78.0439 5.49683 61.7201 5.49683 41.5586C5.49707 21.3973 21.6406 5.07422 41.5291 5.07422Z" fill="#6A6A6A" fill-opacity="0.43" stroke="black" stroke-width="2"/>
<path d="M15.785 63.5748C19.27 60.8382 23.165 58.6811 27.47 57.1037C31.775 55.5262 36.285 54.7361 41 54.7333C45.715 54.7305 50.225 55.5206 54.53 57.1037C58.835 58.6867 62.73 60.8438 66.215 63.5748C68.6066 60.6978 70.4694 57.4349 71.8033 53.786C73.1371 50.1371 73.8027 46.2426 73.8 42.1025C73.8 32.7698 70.6061 24.8223 64.2183 18.2599C57.8305 11.6975 50.091 8.4177 41 8.42051C31.9089 8.42331 24.1695 11.7045 17.7817 18.2641C11.3939 24.8237 8.2 32.7698 8.2 42.1025C8.2 46.2426 8.86693 50.1371 10.2008 53.786C11.5347 57.4349 13.3961 60.6978 15.785 63.5748ZM41 46.3128C36.9683 46.3128 33.568 44.8925 30.7992 42.052C28.0303 39.2115 26.6473 35.7198 26.65 31.5769C26.6527 27.434 28.0372 23.9423 30.8033 21.1018C33.5694 18.2613 36.9683 16.841 41 16.841C45.0316 16.841 48.4319 18.2627 51.2008 21.106C53.9696 23.9493 55.3527 27.4396 55.35 31.5769C55.3472 35.7142 53.9642 39.2059 51.2008 42.052C48.4374 44.8981 45.0371 46.3184 41 46.3128ZM41 84.2051C35.3283 84.2051 29.9983 83.0992 25.01 80.8874C20.0217 78.6756 15.6825 75.6765 11.9925 71.8901C8.3025 68.1037 5.38194 63.6478 3.2308 58.5225C1.07967 53.3972 0.00273852 47.9239 5.18987e-06 42.1025C-0.00272814 36.2812 1.0742 30.8078 3.2308 25.6825C5.3874 20.5573 8.30797 16.1014 11.9925 12.315C15.677 8.52857 20.0162 5.52947 25.01 3.31768C30.0038 1.10589 35.3338 0 41 0C46.6662 0 51.9962 1.10589 56.99 3.31768C61.9838 5.52947 66.3229 8.52857 70.0075 12.315C73.692 16.1014 76.6139 20.5573 78.7733 25.6825C80.9326 30.8078 82.0082 36.2812 82 42.1025C81.9918 47.9239 80.9148 53.3972 78.7692 58.5225C76.6235 63.6478 73.7029 68.1037 70.0075 71.8901C66.312 75.6765 61.9728 78.677 56.99 80.8916C52.0071 83.1062 46.6771 84.2107 41 84.2051Z" fill="white"/>
<path d="M41 1C46.532 1 51.7235 2.07925 56.585 4.23242C61.4659 6.39425 65.6986 9.32096 69.291 13.0127C72.8839 16.705 75.7381 21.0549 77.8516 26.0713C79.9564 31.0674 81.008 36.4078 81 42.1016C80.9919 47.7971 79.9389 53.1392 77.8467 58.1367C75.7472 63.1515 72.8949 67.4997 69.292 71.1914C65.6879 74.8842 61.4545 77.8129 56.584 79.9775C51.7346 82.1328 46.5438 83.2106 41.001 83.2051H41C35.4623 83.2051 30.2707 82.1266 25.415 79.9736C20.5395 77.8118 16.3071 74.8845 12.709 71.1924C9.11104 67.5004 6.25843 63.1513 4.15332 58.1357C2.05603 53.1388 1.00273 47.7974 1 42.1025C0.997326 36.4082 2.04988 31.0669 4.15234 26.0703C6.26305 21.0541 9.11616 16.7049 12.709 13.0127C16.3014 9.32095 20.5341 6.39425 25.415 4.23242C30.2765 2.07925 35.4679 1 41 1ZM41 7.4209C31.6371 7.42379 23.6399 10.8152 17.0654 17.5664C10.4919 24.3167 7.2002 32.5148 7.2002 42.1025C7.2002 46.3519 7.88515 50.3631 9.26172 54.1289C10.6333 57.8811 12.5508 61.2454 15.0156 64.2139L15.6377 64.9619L16.4023 64.3613C19.8019 61.6918 23.6046 59.5855 27.8145 58.043C32.0062 56.5071 36.3999 55.7361 41.001 55.7334C45.6011 55.7307 49.9936 56.5009 54.1846 58.042C58.3952 59.5904 62.1987 61.6979 65.5986 64.3623L66.3633 64.9609L66.9844 64.2139C69.452 61.2454 71.3705 57.8811 72.7422 54.1289C74.1189 50.3628 74.8026 46.3511 74.7998 42.1016C74.7996 32.5143 71.5077 24.3153 64.9346 17.5625C58.3601 10.8084 50.3631 7.41809 41 7.4209ZM41 17.8408C44.7667 17.8408 47.9071 19.1571 50.4844 21.8037C53.0628 24.4515 54.3522 27.6875 54.3496 31.5762C54.347 35.4659 53.0573 38.7045 50.4834 41.3555C47.9124 44.0035 44.7727 45.3177 41.001 45.3125H41C37.233 45.3125 34.0928 43.9974 31.5156 41.3535C28.9378 38.7089 27.6478 35.4719 27.6504 31.5771C27.6531 27.682 28.9442 24.4445 31.5195 21.7998C34.0939 19.1562 37.233 17.8408 41 17.8408Z" stroke="#6A6A6A" stroke-opacity="0.43" stroke-width="2"/>
</svg>
