<svg width="37" height="37" viewBox="0 0 37 37" fill="none" xmlns="http://www.w3.org/2000/svg">
<path d="M18.5001 35.7976C8.93564 35.7976 1.20264 28.0646 1.20264 18.5001C1.20264 8.93564 8.93564 1.20264 18.5001 1.20264C28.0646 1.20264 35.7976 8.93564 35.7976 18.5001C35.7976 28.0646 28.0646 35.7976 18.5001 35.7976ZM18.5001 3.23764C10.0549 3.23764 3.23764 10.0549 3.23764 18.5001C3.23764 26.9454 10.0549 33.7626 18.5001 33.7626C26.9454 33.7626 33.7626 26.9454 33.7626 18.5001C33.7626 10.0549 26.9454 3.23764 18.5001 3.23764Z" fill="white"/>
<path d="M19.8875 8.54799C19.8875 7.65719 19.2675 6.9375 18.5 6.9375C17.7325 6.9375 17.1125 7.65719 17.1125 8.54799V21.4319C17.1125 22.3227 17.7325 23.0424 18.5 23.0424C19.2675 23.0424 19.8875 22.3227 19.8875 21.4319V8.54799ZM18.5 29.4844C18.96 29.4844 19.4011 29.2723 19.7264 28.8947C20.0516 28.5172 20.2344 28.0052 20.2344 27.4713C20.2344 26.9373 20.0516 26.4253 19.7264 26.0478C19.4011 25.6702 18.96 25.4581 18.5 25.4581C18.04 25.4581 17.5989 25.6702 17.2736 26.0478C16.9484 26.4253 16.7656 26.9373 16.7656 27.4713C16.7656 28.0052 16.9484 28.5172 17.2736 28.8947C17.5989 29.2723 18.04 29.4844 18.5 29.4844Z" fill="white"/>
</svg>
