<svg width="48" height="44" viewBox="0 0 48 44" fill="none" xmlns="http://www.w3.org/2000/svg">
<path d="M29.7549 1.5L29.9033 1.50781C30.2466 1.54195 30.5693 1.69337 30.8154 1.93945L34.4922 5.61621H40.0449C41.5344 5.61621 42.9634 6.20756 44.0166 7.26074C45.0698 8.31397 45.6611 9.74293 45.6611 11.2324V35.9287C45.6611 37.4182 45.0698 38.8472 44.0166 39.9004C42.9634 40.9536 41.5344 41.5449 40.0449 41.5449H7.11621C5.62672 41.5449 4.19776 40.9536 3.14453 39.9004C2.09137 38.8472 1.5 37.4182 1.5 35.9287V11.2324C1.5 9.74295 2.09133 8.31397 3.14453 7.26074C4.19776 6.20752 5.62672 5.61621 7.11621 5.61621H12.6689L16.3457 1.93945C16.627 1.6582 17.0085 1.50006 17.4062 1.5H29.7549ZM23.5811 14.79C21.2497 14.79 19.0137 15.7167 17.3652 17.3652C15.7167 19.0137 14.79 21.2497 14.79 23.5811C14.7902 25.9122 15.7169 28.1475 17.3652 29.7959C19.0137 31.4444 21.2497 32.3711 23.5811 32.3711C25.9123 32.371 28.1485 31.4443 29.7969 29.7959C31.445 28.1475 32.371 25.912 32.3711 23.5811C32.3711 21.2499 31.4451 19.0137 29.7969 17.3652C28.1485 15.7168 25.9123 14.7901 23.5811 14.79ZM23.5811 15.9062C25.6162 15.9064 27.5677 16.7153 29.0068 18.1543C30.446 19.5935 31.2549 21.5457 31.2549 23.5811C31.2548 25.6162 30.4459 27.5677 29.0068 29.0068C27.5677 30.4459 25.6162 31.2548 23.5811 31.2549C21.5457 31.2549 19.5935 30.446 18.1543 29.0068C16.7153 27.5678 15.9064 25.6162 15.9062 23.5811C15.9062 21.5457 16.7151 19.5935 18.1543 18.1543C19.5935 16.7151 21.5457 15.9063 23.5811 15.9062Z" fill="white" stroke="#9AC1F0" stroke-width="3" stroke-linejoin="round"/>
</svg>
