<svg width="65" height="66" viewBox="0 0 65 66" fill="none" xmlns="http://www.w3.org/2000/svg">
<path d="M59.9505 43.2083L53.7322 38.7667C54.7572 35.0767 54.8255 31.0792 53.7322 27.0817L59.9505 22.7083L54.9963 14.1667L48.0605 17.31C45.3613 14.5767 41.9447 12.4583 37.9472 11.4675L37.2638 3.91667H27.3555L26.6722 11.4675C22.6747 12.4583 19.258 14.5767 16.5588 17.31L9.62301 14.1667L4.66884 22.7083L10.8872 27.0817C9.79384 31.0792 9.86217 35.0767 10.8872 38.7667L4.66884 43.2083L9.62301 51.75L16.5588 48.5725C19.258 51.2717 22.6747 53.3217 26.6722 54.3808L27.3555 62H37.2638L37.9472 54.3808C41.9447 53.3217 45.3613 51.2717 48.0605 48.5725L54.9963 51.75L59.9505 43.2083ZM39.143 0.5C40.0655 0.5 40.8513 1.18333 40.8513 2.07167L41.4663 9.04167C44.063 9.99833 46.3863 11.3992 48.4705 13.0733L54.7913 10.1008C55.5772 9.69083 56.568 9.96417 57.0463 10.75L63.8797 22.7083C64.358 23.4258 64.0847 24.4167 63.333 24.9292L57.6272 28.9267C58.0713 31.66 58.0372 34.3592 57.6272 36.99L63.333 40.9875C64.0847 41.5 64.358 42.4908 63.8797 43.2083L57.0463 55.1667C56.568 55.8842 55.5772 56.1575 54.7913 55.7475L48.4705 52.8092C46.3863 54.4833 44.063 55.85 41.4663 56.875L40.8513 63.7083C40.8513 64.6992 40.0655 65.4167 39.143 65.4167H25.4763C25.0233 65.4167 24.5887 65.2367 24.2684 64.9163C23.948 64.5959 23.768 64.1614 23.768 63.7083L23.153 56.875C20.5563 55.85 18.233 54.4833 16.1488 52.8092L9.82801 55.7475C9.04218 56.1575 8.05134 55.8842 7.57301 55.1667L0.739676 43.2083C0.261342 42.4908 0.534676 41.5 1.28634 40.9875L6.99218 36.99C6.58218 34.3592 6.54801 31.66 6.99218 28.9267L1.28634 24.9292C0.534676 24.4167 0.261342 23.4258 0.739676 22.7083L7.57301 10.75C8.05134 9.96417 9.04218 9.69083 9.82801 10.1008L16.1488 13.0733C18.233 11.3992 20.5563 9.99833 23.153 9.04167L23.768 2.07167C23.768 1.18333 24.5538 0.5 25.4763 0.5H39.143ZM32.3097 21C35.4812 21 38.5229 22.2599 40.7655 24.5025C43.0081 26.7451 44.268 29.7868 44.268 32.9583C44.268 36.1299 43.0081 39.1715 40.7655 41.4142C38.5229 43.6568 35.4812 44.9167 32.3097 44.9167C29.1381 44.9167 26.0965 43.6568 23.8539 41.4142C21.6112 39.1715 20.3513 36.1299 20.3513 32.9583C20.3513 29.7868 21.6112 26.7451 23.8539 24.5025C26.0965 22.2599 29.1381 21 32.3097 21ZM32.3097 24.4167C30.0443 24.4167 27.8717 25.3166 26.2698 26.9185C24.6679 28.5203 23.768 30.6929 23.768 32.9583C23.768 35.2237 24.6679 37.3963 26.2698 38.9982C27.8717 40.6001 30.0443 41.5 32.3097 41.5C34.5751 41.5 36.7477 40.6001 38.3495 38.9982C39.9514 37.3963 40.8513 35.2237 40.8513 32.9583C40.8513 30.6929 39.9514 28.5203 38.3495 26.9185C36.7477 25.3166 34.5751 24.4167 32.3097 24.4167Z" fill="#14142A" stroke="#14142A" stroke-linejoin="round"/>
</svg>
